<svg xmlns:xlink="http://www.w3.org/1999/xlink" xmlns="http://www.w3.org/2000/svg" width="800pt" height="256pt" viewBox="0.00 0.00 914.00 256.00">
	<g id="graph0" class="graph" transform="scale(1 1) rotate(0) translate(4 252)">
		<title>d1e200</title>
		<polygon style="fill:white;stroke:white;" points="-4,4 -4,-252 910,-252 910,4 -4,4"/>
		&lt;!-- <a href="http://d&amp;#45;nb.info/gnd/118805193">http://d&amp;#45;nb.info/gnd/118805193</a> --&gt;
		<g id="node1" class="node">
			<title><a href="http://d-nb.info/gnd/118805193">http://d-nb.info/gnd/118805193</a></title>
			<a xlink:href="http://d-nb.info/gnd/118805193" xlink:title="foaf:Person:\nSoemmerring, Samuel Thomas">
				<polygon style="fill:none;stroke:black;" points="210,-248 44,-248 44,-214 210,-214 210,-248"/>
				<text text-anchor="middle" x="127" y="-235" style="font-family:Times New Roman;font-size:10.00px;fill:blue;">foaf:Person:</text>
				<text text-anchor="middle" x="127" y="-222" style="font-family:Times New Roman;font-size:10.00px;fill:blue;">Soemmerring, Samuel Thomas</text>
			</a>
		</g>
		&lt;!-- <a href="http://d&amp;#45;nb.info/gnd/118540238">http://d&amp;#45;nb.info/gnd/118540238</a> --&gt;
		<g id="node3" class="node">
			<title><a href="http://d-nb.info/gnd/118540238">http://d-nb.info/gnd/118540238</a></title>
			<a xlink:href="http://d-nb.info/gnd/118540238" xlink:title="foaf:Person:\nGoethe, Johann Wolfgang von, Johann Wolfgang von Goethe">
				<polygon style="fill:none;stroke:black;" points="680,-172 382,-172 382,-138 680,-138 680,-172"/>
				<text text-anchor="middle" x="531" y="-159" style="font-family:Times New Roman;font-size:10.00px;fill:blue;">foaf:Person:</text>
				<text text-anchor="middle" x="531" y="-146" style="font-family:Times New Roman;font-size:10.00px;fill:blue;">Goethe, Johann Wolfgang von, Johann Wolfgang von Goethe</text>
			</a>
		</g>
		&lt;!-- <a href="http://d&amp;#45;nb.info/gnd/118805193&amp;#45;&amp;gt;http://d&amp;#45;nb.info/gnd/118540238">http://d&amp;#45;nb.info/gnd/118805193&amp;#45;&amp;gt;http://d&amp;#45;nb.info/gnd/118540238</a> --&gt;
		<g id="edge2" class="edge">
			<title><a href="http://d-nb.info/gnd/118805193-&amp;gt;http://d-nb.info/gnd/118540238">http://d-nb.info/gnd/118805193-&amp;gt;http://d-nb.info/gnd/118540238</a></title>
			<path style="fill:none;stroke:blue;" d="M210,-228C258,-225 318,-220 371,-209 408,-201 448,-187 479,-176"/>
			<polygon style="fill:blue;stroke:blue;" points="481.015,-178.964 489,-172 478.415,-172.464 481.015,-178.964"/>
			<text text-anchor="middle" x="318" y="-226.5" style="font-family:Times New Roman;font-size:10.00px;">cd:sending</text>
		</g>
		&lt;!-- <a href="http://d&amp;#45;nb.info/gnd/118540238&amp;#45;&amp;gt;http://d&amp;#45;nb.info/gnd/118805193">http://d&amp;#45;nb.info/gnd/118540238&amp;#45;&amp;gt;http://d&amp;#45;nb.info/gnd/118805193</a> --&gt;
		<g id="edge12" class="edge">
			<title><a href="http://d-nb.info/gnd/118540238-&amp;gt;http://d-nb.info/gnd/118805193">http://d-nb.info/gnd/118540238-&amp;gt;http://d-nb.info/gnd/118805193</a></title>
			<path style="fill:none;stroke:blue;" d="M382,-172C343,-177 303,-184 265,-192 240,-197 214,-204 191,-211"/>
			<polygon style="fill:blue;stroke:blue;" points="189.573,-207.774 181,-214 191.584,-214.479 189.573,-207.774"/>
			<text text-anchor="middle" x="318" y="-195.5" style="font-family:Times New Roman;font-size:10.00px;">cd:sending</text>
		</g>
		&lt;!-- <a href="http://d&amp;#45;nb.info/gnd/122361261">http://d&amp;#45;nb.info/gnd/122361261</a> --&gt;
		<g id="node8" class="node">
			<title><a href="http://d-nb.info/gnd/122361261">http://d-nb.info/gnd/122361261</a></title>
			<a xlink:href="http://d-nb.info/gnd/122361261" xlink:title="foaf:Person:\nWeber, Genovefa">
				<polygon style="fill:none;stroke:black;" points="905,-172 809,-172 809,-138 905,-138 905,-172"/>
				<text text-anchor="middle" x="857" y="-159" style="font-family:Times New Roman;font-size:10.00px;fill:blue;">foaf:Person:</text>
				<text text-anchor="middle" x="857" y="-146" style="font-family:Times New Roman;font-size:10.00px;fill:blue;">Weber, Genovefa</text>
			</a>
		</g>
		&lt;!-- <a href="http://d&amp;#45;nb.info/gnd/118540238&amp;#45;&amp;gt;http://d&amp;#45;nb.info/gnd/122361261">http://d&amp;#45;nb.info/gnd/118540238&amp;#45;&amp;gt;http://d&amp;#45;nb.info/gnd/122361261</a> --&gt;
		<g id="edge10" class="edge">
			<title><a href="http://d-nb.info/gnd/118540238-&amp;gt;http://d-nb.info/gnd/122361261">http://d-nb.info/gnd/118540238-&amp;gt;http://d-nb.info/gnd/122361261</a></title>
			<path style="fill:none;stroke:blue;" d="M680,-155C722,-155 765,-155 798,-155"/>
			<polygon style="fill:blue;stroke:blue;" points="798,-158.5 808,-155 798,-151.5 798,-158.5"/>
			<text text-anchor="middle" x="744" y="-158.5" style="font-family:Times New Roman;font-size:10.00px;">cd:sending</text>
		</g>
		&lt;!-- <a href="http://d&amp;#45;nb.info/gnd/115363688">http://d&amp;#45;nb.info/gnd/115363688</a> --&gt;
		<g id="node4" class="node">
			<title><a href="http://d-nb.info/gnd/115363688">http://d-nb.info/gnd/115363688</a></title>
			<a xlink:href="http://d-nb.info/gnd/115363688" xlink:title="foaf:Person:\nLuise Augusta Herzogin von Sachsen-Weimar und\nEisenach">
				<polygon style="fill:none;stroke:black;" points="253,-183.5 1,-183.5 1,-136.5 253,-136.5 253,-183.5"/>
				<text text-anchor="middle" x="127" y="-170.5" style="font-family:Times New Roman;font-size:10.00px;fill:blue;">foaf:Person:</text>
				<text text-anchor="middle" x="127" y="-157.5" style="font-family:Times New Roman;font-size:10.00px;fill:blue;">Luise Augusta Herzogin von Sachsen-Weimar und</text>
				<text text-anchor="middle" x="127" y="-144.5" style="font-family:Times New Roman;font-size:10.00px;fill:blue;">Eisenach</text>
			</a>
		</g>
		&lt;!-- <a href="http://d&amp;#45;nb.info/gnd/115363688&amp;#45;&amp;gt;http://d&amp;#45;nb.info/gnd/118540238">http://d&amp;#45;nb.info/gnd/115363688&amp;#45;&amp;gt;http://d&amp;#45;nb.info/gnd/118540238</a> --&gt;
		<g id="edge4" class="edge">
			<title><a href="http://d-nb.info/gnd/115363688-&amp;gt;http://d-nb.info/gnd/118540238">http://d-nb.info/gnd/115363688-&amp;gt;http://d-nb.info/gnd/118540238</a></title>
			<path style="fill:none;stroke:blue;" d="M254,-155C258,-155 261,-155 265,-155 300,-154 337,-154 372,-154"/>
			<polygon style="fill:blue;stroke:blue;" points="372,-157.5 382,-154 372,-150.5 372,-157.5"/>
			<text text-anchor="middle" x="318" y="-158.5" style="font-family:Times New Roman;font-size:10.00px;">cd:sending</text>
		</g>
		&lt;!-- <a href="http://d&amp;#45;nb.info/gnd/117158542">http://d&amp;#45;nb.info/gnd/117158542</a> --&gt;
		<g id="node6" class="node">
			<title><a href="http://d-nb.info/gnd/117158542">http://d-nb.info/gnd/117158542</a></title>
			<a xlink:href="http://d-nb.info/gnd/117158542" xlink:title="foaf:Person:\nWeber, Franz Anton">
				<polygon style="fill:none;stroke:black;" points="181,-115 73,-115 73,-81 181,-81 181,-115"/>
				<text text-anchor="middle" x="127" y="-102" style="font-family:Times New Roman;font-size:10.00px;fill:blue;">foaf:Person:</text>
				<text text-anchor="middle" x="127" y="-89" style="font-family:Times New Roman;font-size:10.00px;fill:blue;">Weber, Franz Anton</text>
			</a>
		</g>
		&lt;!-- <a href="http://d&amp;#45;nb.info/gnd/117158542&amp;#45;&amp;gt;http://d&amp;#45;nb.info/gnd/118540238">http://d&amp;#45;nb.info/gnd/117158542&amp;#45;&amp;gt;http://d&amp;#45;nb.info/gnd/118540238</a> --&gt;
		<g id="edge6" class="edge">
			<title><a href="http://d-nb.info/gnd/117158542-&amp;gt;http://d-nb.info/gnd/118540238">http://d-nb.info/gnd/117158542-&amp;gt;http://d-nb.info/gnd/118540238</a></title>
			<path style="fill:none;stroke:blue;" d="M181,-106C237,-114 326,-126 400,-137"/>
			<polygon style="fill:blue;stroke:blue;" points="399.701,-140.488 410,-138 400.398,-133.522 399.701,-140.488"/>
			<text text-anchor="middle" x="318" y="-133.5" style="font-family:Times New Roman;font-size:10.00px;">cd:sending</text>
		</g>
		&lt;!-- <a href="http://d&amp;#45;nb.info/gnd/118540246">http://d&amp;#45;nb.info/gnd/118540246</a> --&gt;
		<g id="node9" class="node">
			<title><a href="http://d-nb.info/gnd/118540246">http://d-nb.info/gnd/118540246</a></title>
			<a xlink:href="http://d-nb.info/gnd/118540246" xlink:title="foaf:Person:\nGoethe, Katharina Elisabeth">
				<polygon style="fill:none;stroke:black;" points="202,-59 52,-59 52,-25 202,-25 202,-59"/>
				<text text-anchor="middle" x="127" y="-46" style="font-family:Times New Roman;font-size:10.00px;fill:blue;">foaf:Person:</text>
				<text text-anchor="middle" x="127" y="-33" style="font-family:Times New Roman;font-size:10.00px;fill:blue;">Goethe, Katharina Elisabeth</text>
			</a>
		</g>
		&lt;!-- <a href="http://d&amp;#45;nb.info/gnd/118540246&amp;#45;&amp;gt;http://d&amp;#45;nb.info/gnd/118540238">http://d&amp;#45;nb.info/gnd/118540246&amp;#45;&amp;gt;http://d&amp;#45;nb.info/gnd/118540238</a> --&gt;
		<g id="edge8" class="edge">
			<title><a href="http://d-nb.info/gnd/118540246-&amp;gt;http://d-nb.info/gnd/118540238">http://d-nb.info/gnd/118540246-&amp;gt;http://d-nb.info/gnd/118540238</a></title>
			<path style="fill:none;stroke:blue;" d="M202,-58C219,-62 237,-66 254,-70 307,-82 320,-83 371,-99 407,-109 446,-123 477,-134"/>
			<polygon style="fill:blue;stroke:blue;" points="476.415,-137.536 487,-138 479.015,-131.036 476.415,-137.536"/>
			<text text-anchor="middle" x="318" y="-102.5" style="font-family:Times New Roman;font-size:10.00px;">cd:sending</text>
		</g>
	</g>
</svg>